    <svg xmlns="http://www.w3.org/2000/svg" xmlns:xlink="http://www.w3.org/1999/xlink" viewBox="0 0 1147.16 762.51"><defs><style>.cls-1{fill:none;}.cls-2{fill:url(#linear-gradient);}.cls-3{opacity:0.8;}.cls-4{fill:#596987;}.cls-5{fill:#44536e;}.cls-6{fill:#d1d6db;}.cls-7{fill:#3c4557;}.cls-8{fill:#fff;}.cls-9{fill:#47536b;}.cls-10{clip-path:url(#clip-path);}.cls-11{fill:#9e5124;}.cls-12{fill:#7d411c;}.cls-13{fill:#783f1c;}.cls-14{fill:#c5642b;}.cls-15{fill:#6e3a19;}</style><linearGradient id="linear-gradient" x1="445.36" y1="274.4" x2="440.81" y2="540.18" gradientUnits="userSpaceOnUse"><stop offset="0" stop-color="#27aaf2"/><stop offset="1" stop-color="#00579b"/></linearGradient><clipPath id="clip-path" transform="translate(0 4.32)"><polygon id="hill" class="cls-1" points="1037.07 560.18 618.17 560.18 645.58 527.61 676.47 523.54 712.37 420.96 757.93 337.11 790.75 276.05 856 259.77 881.09 192.2 917 112.42 942.09 61.13 963.33 51.36 979.16 12.29 1013.74 0 1029.7 13.51 1044.44 13.51 1037.07 48.92 1037.07 560.18"/></clipPath></defs><g id="Layer_2" data-name="Layer 2"><g id="landscape"><g id="page_02"><g id="water"><g id="Layer_15" data-name="Layer 15"><rect class="cls-2" y="260.79" width="885.84" height="312.16"/><g id="fish_2" data-name="fish 2" class="cls-3"><path class="cls-4" d="M203,482.84c-.58-3.25-1.2-6.49-2.08-9.71-1.75-6.36-3.25-12.87-6.13-18.81-11.85-24.47-44.58-41.09-48.65-42.25s-25-7.37-46.12,1.16-18,25.58-18,25.58a79.17,79.17,0,0,1-6.67,4.61c-4.8,2.61-3.06,4.21-1.75,5.66C72.11,454.46,83.88,452,89,450.39c4.77,1.64,11.6,1.75,16,1.75,1.19,0,11.2,2.59,24.6,2.24a101.93,101.93,0,0,1,13.41.9c6.41.69,12.31.93,18.4,3.26a69.54,69.54,0,0,1,15,8c10.07,7,19.36,17.18,23.35,29,.43,1.25,1.64,4.24,3.56,3.77a2.82,2.82,0,0,0,1.79-1.35,5,5,0,0,0,.22-2.54,17.66,17.66,0,0,0-.44-3.32C204.1,489,203.56,485.91,203,482.84Z" transform="translate(0 4.32)"/><path class="cls-5" d="M170.45,426.61h0c-3.35-6.09,1.28-10.47,8.06-13.78-16.09-9.91-30.4,0-30.4,0v0A124,124,0,0,1,170.45,426.61Z" transform="translate(0 4.32)"/><path class="cls-5" d="M130.81,450.41c.14,2.23,1,13.06,11.28,17.92-5.8,1-10.2.78-15.32-1.52-7.55-3.38-9.78-5.29-13.26-17.27C116.2,449.87,130.84,450.41,130.81,450.41Z" transform="translate(0 4.32)"/><path class="cls-6" d="M200.62,494.4a10.88,10.88,0,0,0,.19-3.47,34.17,34.17,0,0,0-2.76-9.74,73.62,73.62,0,0,0-7.72-14.06,53.84,53.84,0,0,0-10.7-10.78c-1.86-1.46-3.79-2.84-5.75-4.18a102.82,102.82,0,0,0-28.41-13,118.14,118.14,0,0,0-22.21-4.91c-7-.69-13.36-.91-21.13,1.8s-11.25,5.49-18.37,9.42a46.7,46.7,0,0,1-10.2,3.63C72.11,454.46,83.88,452,89,450.39c4.77,1.64,11.6,1.75,16,1.75,1.19,0,11.2,2.59,24.6,2.24a101.93,101.93,0,0,1,13.41.9c6.41.69,12.31.93,18.4,3.26l2,.79a70,70,0,0,1,13,7.18h0c9.95,7,19.13,16.94,23.2,28.53C200.08,495.65,200.47,494.87,200.62,494.4Z" transform="translate(0 4.32)"/><path class="cls-5" d="M217.85,496.15c-2.16-.49-4.41-.48-6.57-1-2.41-.57-4-.66-6.33-2.48a17.19,17.19,0,0,1,.31,2.68,5,5,0,0,1-.22,2.54,2.82,2.82,0,0,1-1.79,1.35c-1.74.42-2.9-2-3.41-3.38h0c0,.47,0,.95,0,1.44.11,2.48-1.66,4.16-2.74,6.29-2.47,4.91-.77,11,2.22,15.6-.28-2.84,1.75-5.35,3.79-7.35s4.35-4.07,4.86-6.88c3.08,2.92,7.6,3.54,11.8,4.13s8.75,1.49,11.49,4.73C230.57,505.94,225.57,497.92,217.85,496.15Z" transform="translate(0 4.32)"/><path d="M97.82,436.67c-.14-1.11.94-1.92,1.91-2.13a4.12,4.12,0,0,1,2.54.31c.87.39,2.07,1.22,1.23,2.26a4.15,4.15,0,0,1-3.9,1.21A2.12,2.12,0,0,1,97.82,436.67Z" transform="translate(0 4.32)"/><path class="cls-7" d="M100.43,438.62a3.94,3.94,0,0,1-.87-.09,2.33,2.33,0,0,1-2-1.83h0a2.35,2.35,0,0,1,2.07-2.37,4.4,4.4,0,0,1,2.67.32c.53.24,1.44.74,1.62,1.49a1.26,1.26,0,0,1-.3,1.11A4.24,4.24,0,0,1,100.43,438.62Zm-2.39-2a1.89,1.89,0,0,0,1.61,1.46,3.92,3.92,0,0,0,3.68-1.13.8.8,0,0,0,.22-.73c-.1-.41-.61-.85-1.37-1.19a4,4,0,0,0-2.4-.3c-.8.17-1.87.87-1.74,1.89Z" transform="translate(0 4.32)"/><path class="cls-8" d="M100.63,436.09a.75.75,0,0,1,.72-.78.74.74,0,0,1,.78.72.75.75,0,0,1-.72.78A.76.76,0,0,1,100.63,436.09Z" transform="translate(0 4.32)"/><path class="cls-5" d="M124.73,448c3.28,2.88,7.23,3.78,11.53,4.08a16.91,16.91,0,0,0,8-1.24c2.64-1.12,5.6-2.33,8.12-6.69a24,24,0,0,1-6.79.1c-3.12-.64-6.38-1.29-9-3.17-2.33-1.66-4.3-3.65-7.32-3.89-2.11-.16-5.08.46-6.23,2.49C121.08,443.06,122.31,445.87,124.73,448Z" transform="translate(0 4.32)"/><path class="cls-9" d="M87.66,439.8l-.11-.42a8.63,8.63,0,0,1-5.6-.81l0,.24-.2.16a9.93,9.93,0,0,0,4.15,1A6.57,6.57,0,0,0,87.66,439.8Z" transform="translate(0 4.32)"/><path class="cls-9" d="M96,442a2.36,2.36,0,0,1,1,.07,6.94,6.94,0,0,0,3.4-.05l-.12-.42a6.51,6.51,0,0,1-3.2.05,2.46,2.46,0,0,0-1.28-.05l0,0c-14.34,9-21.48,7.48-22.38,7.24l.2.21c0,.1,0,.18,0,.27a12.46,12.46,0,0,0,2.49.26C79.22,449.61,85.63,448.48,96,442Z" transform="translate(0 4.32)"/></g><g id="fish_1" data-name="fish 1" class="cls-3"><path class="cls-5" d="M251.85,429.86c4.24-6.9,12.77-7.13,15.46-6.9-5.07-7.6,2.88-14.63-.94-27.84,18.54,10.05,18.54,26.2,18.95,32h.05a22.53,22.53,0,0,0-2.79,5.88c-6.81.67-12.9,8-19.64,9.24a26.09,26.09,0,0,1-11.66-.33,23.91,23.91,0,0,1-7.26-3.32c-.31-.21-2.05-1.94-2.36-1.9C241.66,436.66,248.55,435.24,251.85,429.86Z" transform="translate(0 4.32)"/><path class="cls-4" d="M272.14,426.32c1.13-2,2.82-1.78,4.88-.79a15.25,15.25,0,0,0,4.45,1.36C291.65,428,306,423.32,313.32,416c13.4-13.39,29.45-25.14,47.84-31.12,12.39-4,26.32-6.34,39.53-3.93,8.08,1.48,23.85,7.71,24.37,21.25.24,1.52,16.23,4,11.42,9.38,2.46,3.92-7.93,8.34-20.47,6.6-9.48,6-21.14,8.6-32.32,11.08-6.25,1.39-10.87,2.28-17.15,3.48a171.81,171.81,0,0,1-25.47,3.08c-9.93.4-38.23.9-48.12-.45a125.52,125.52,0,0,1-14.66-3.63C274,430.3,271.37,427.69,272.14,426.32Z" transform="translate(0 4.32)"/><path class="cls-6" d="M353.57,423.51C364.92,418,376.1,412,387.85,408.07c10.62-3.52,20.19-2,30.72.55a121.43,121.43,0,0,0,12.84,2.4c.54.07,4.79.06,5.07.52,2.46,3.92-7.93,8.34-20.47,6.6-9.48,6-21.14,8.6-32.32,11.08-6.25,1.39-10.87,2.28-17.15,3.48a171.81,171.81,0,0,1-25.47,3.08c-6.43.26-20.58.56-32.43.37C324.84,436.41,339.33,430.41,353.57,423.51Z" transform="translate(0 4.32)"/><path d="M400.15,405.91c.47,2.21,7,2.07,6.13-1.3C405.55,401.57,399.62,403.41,400.15,405.91Z" transform="translate(0 4.32)"/><path class="cls-7" d="M401.53,407.4a2.15,2.15,0,0,1-1.61-1.44c-.31-1.47,1.28-2.66,2.93-3s3.27,0,3.66,1.63a2.11,2.11,0,0,1-.59,2.14,4.27,4.27,0,0,1-2.85.93A5.3,5.3,0,0,1,401.53,407.4Zm1.42-4c-1.46.33-2.82,1.35-2.58,2.5h0c.14.63.87.95,1.29,1.09a4.47,4.47,0,0,0,3.94-.6,1.66,1.66,0,0,0,.46-1.7,2,2,0,0,0-2.14-1.4A4.44,4.44,0,0,0,403,403.37Z" transform="translate(0 4.32)"/><path class="cls-8" d="M401.7,405a.83.83,0,1,0,1.62-.35.83.83,0,0,0-1-.64A.84.84,0,0,0,401.7,405Z" transform="translate(0 4.32)"/><path class="cls-5" d="M360.36,386.07s-10.43-13.47-30.66-2.93c6,3.09,10.81,4.32,8.49,13C346.64,395.34,359.27,390.24,360.36,386.07Z" transform="translate(0 4.32)"/><path class="cls-5" d="M356.12,434.24c4.08-5.19,4.53-10.13,9.48-12.34,4.59-2.06,9-.4,10.35,3.94,2.24,7.44-4.73,13.19-10.47,16.29a27.74,27.74,0,0,1-13.23,3.34,18,18,0,0,1-8.72-2.76C350.43,440.2,352.4,439,356.12,434.24Z" transform="translate(0 4.32)"/><path class="cls-9" d="M413.47,410.18c-1.12,1.08-2.28,1.08-4.54,1.08v-.47c2.26,0,3.29,0,4.31-1l.1-.1.13,0c13,3.5,22.47,1.73,23.22,1.58l-.21.25a1,1,0,0,1,.12.23,42.74,42.74,0,0,1-7.26.57A61.66,61.66,0,0,1,413.47,410.18Z" transform="translate(0 4.32)"/><path class="cls-9" d="M418.23,403.5A17.92,17.92,0,0,0,425,402c0,.06,0,.12,0,.19a.47.47,0,0,0,.15.24,18.19,18.19,0,0,1-7,1.56Z" transform="translate(0 4.32)"/></g></g></g><g id="Hill-2" data-name="Hill"><g class="cls-10"><path class="cls-11" d="M1147.16,750.2l-10.52,6a11.33,11.33,0,0,1-8.59,1.88c-32.75-2.82-64.71-11.3-96.37-20.2-4-1.11-8-2.3-11.21-4.93-6.19-5.19-2-11-4.28-17.38-1.18-3.34-3.44-6.16-5.65-8.91l-17.63,3c-1.2.21-2.61.33-3.42-.56s-.59-2-.72-3c-.5-4.43-5.55-6.88-10-7.11s-9,.87-13.33-.18S957.11,693,959,689c-4.29.18-8.8.25-12.53-1.84s-6.11-7.19-3.85-10.81a13.72,13.72,0,0,1,2.41-2.7h0c1.56-1.42,3.24-2.75,3.84-4.29a3.16,3.16,0,0,0,0-2.38c-.7-1.75-2.77-2.49-4.62-2.83-3.4-.63-7.24-.82-10.67-1.59-3.59-.79-6.73-2.2-8.5-5.34-1.07-1.87-1.38-4.06-2.27-6-2.63-5.81-9.51-8.24-15.78-9.38-3.1-.56-6.32-1-9.38-1.84a21.56,21.56,0,0,1-7.64-3.55,10,10,0,0,1-.83-.66c-2-1.79-3.56-4.12-5.64-5.86-2.53-2.14-5.73-3.27-8.89-4.27a154.18,154.18,0,0,0-23.07-5.38c-4.34-.67-9.73-2-10.62-6.33-.44-2.09.24-4.71-1.44-6-1.17-.91-2.84-.59-4.29-.33A33.8,33.8,0,0,1,808.68,601a2.54,2.54,0,0,1-1-1.31c-.21-.92.58-1.74,1.16-2.48a7.26,7.26,0,0,0-.59-9.28c-2.42-2.39-8.44-2.54-11.69-1.57-3,.89-6.1,1.8-9.17,1.4l-.18,0c-3.15-.47-6.28-2.74-6.64-5.88,0-.4,0-.8-.1-1.18a2.59,2.59,0,0,0-.18-.69c-.63-1.49-2.61-1.73-4.22-1.75-5.83-.06-11.66-.19-17.49-.43q-18.82-.67-37.59-2.53c-2.33-.22-4.64-.47-7-.72-1.08-.1-2.16-.22-3.24-.34-1.36-.16-3-.57-3.75-1.54a2.13,2.13,0,0,1-.45-1.09,2.43,2.43,0,0,1,.77-1.94v0c.65-.71,1.58-1.31,2.33-2a5,5,0,0,0,.63-.69,3.87,3.87,0,0,0,.72-1.8,5.35,5.35,0,0,0-.64-3.15,6,6,0,0,0-1.36-1.72c-1.89-1.63-4.44-2.19-6.89-2.63a147.54,147.54,0,0,0-43.6-1.36c-9.19,1.07-18.72,3-27.57.24-2.9-.91-5.67-2.31-8.69-2.66a16.31,16.31,0,0,0-3.35,0,52,52,0,0,0-6.63,1.25c-16.5,3.7-33.61,3.16-50.51,2.61,7.26-5.21,16.88-6.17,24.84-10l0,0a27.49,27.49,0,0,0,5.38-3.35l.33-.29c5.69-4.82,7.59-12.17,10.36-19.16,2.53-.22,4.4-2.46,5.58-4.71s2-4.78,3.89-6.5c2.56-2.36,6.48-2.72,9.06-5,1.79-1.62,2.68-4,3.53-6.25,1.22-3.29,2.44-6.6,3.67-9.89a23.6,23.6,0,0,0,1.89-11.74l-.69-23.52a33.91,33.91,0,0,1,.31-7.4c.81-4.44,3.29-8.42,4-12.86,2.17-13-10.72-25.46-7.06-38.07a16.7,16.7,0,0,0,1-4.09,11.19,11.19,0,0,0-.86-4c-1.62-4.63-3.66-7.48-5.14-12.15-.86-2.76-1.73-5.59-1.53-8.47a20.4,20.4,0,0,1,2-6.78,75.45,75.45,0,0,1,35.45-37.5,14.51,14.51,0,0,0,9.85-3.21,13.15,13.15,0,0,0,2.13-2.09c2-2.39,3.38-5.62,6.33-6.54,3.84-1.2,8.7,2.17,11.77-.3l.2-.15a9.29,9.29,0,0,0,1.89-3.1,6,6,0,0,1,1.72-2.42,6.92,6.92,0,0,1,4.08-.82q10.47.14,20.92.25a26.78,26.78,0,0,0,17.05-4.29c9.1-4.81,18.5-9.87,24.75-18.07a13.22,13.22,0,0,0,2.34-4.19,25.14,25.14,0,0,0,.54-5.43,22.27,22.27,0,0,1,4.07-11.26,37,37,0,0,0,3.46-4.92c2.11-4.25.2-9.72,1.29-14.34a29,29,0,0,1,15.92-19.33,21.37,21.37,0,0,1,11.57-2c2.8.37,5.53,1.42,8.34,1.21s5.22-1.58,7.61-2.94l24.93-14.12a48.19,48.19,0,0,0,7.7-5,18.52,18.52,0,0,0,2.93-3.13c3.08-4.2,4-9.64,6.82-14s9.48-7.21,13.12-3.5c.08-2,.2-4,.38-6h0s0,0,0,0,0,0,0,0c1.16-13.7,4.57-27.19,8-40.55h0c.06-.23.11-.43.18-.66a99,99,0,0,1,2.89-9.8,33,33,0,0,1,5.41-10c5.41-6.56,13.8-9.94,19.86-15.92,4.55-4.48,7.5-10.11,10.15-16,0,0,0,0,0,0,2-4.55,3.91-9.25,6.2-13.64a77.63,77.63,0,0,1,14.78-19.67,93.5,93.5,0,0,1,21.47-15.57c7.61-4,16.15-7.51,22.5-13a27.54,27.54,0,0,0,6.47-8l47.38-8L1049.17,3l13.6-2.28L1064,11.91l34.4,305.5,3,26.43h0Z" transform="translate(0 4.32)"/><path class="cls-12" d="M869.21,182.16l-2,76s-11.45,3.73-12.34,36,1.7,82.37,1.7,82.37l-5.06,115.14s-4.8-56.75-5.74-65.28-9-68.42-9-68.42L830,296.9l17.33-78-1-16.09a18.52,18.52,0,0,0,2.93-3.13c3.08-4.2,4-9.64,6.82-14S865.57,178.45,869.21,182.16Z" transform="translate(0 4.32)"/><path class="cls-12" d="M707.33,569.65l-.77,1.94A2.43,2.43,0,0,1,707.33,569.65Z" transform="translate(0 4.32)"/><path class="cls-12" d="M750.48,391.55l-2.85,108.31s-18.37,21.58-20.63,28c-1.58,4.5-10.54,28.25-15.74,42.06a6.09,6.09,0,0,0-1.37-1.79,9.11,9.11,0,0,0-3.17-1.81c-1.2-.45-2.49-1.24-3.74-1-11.47,2.61-21.72-2.91-32.63-2.47-3.67.14-7.34.43-11,.86-3.45.41-7,.94-10.47,1.28-5.8.6-11.59.67-17.11-1.14-2.91-1-5.69-2.43-8.71-2.81a16.31,16.31,0,0,0-3.35,0,48.48,48.48,0,0,0-6.63,1.28,131.8,131.8,0,0,1-26.44,2.94c-8,.16-16.08-.15-24.08-.46l49.29-14.16,21.27-22.26,16.72-18.73s16.42-39.23,16.79-44.73,4.36-32.2,4.36-32.2l14.23-67.91,5.18,46.75s-2.33,32.6-2,35.42l3.35,30.27,19.08,47.26,6.24-41.84,19.38-57.19Z" transform="translate(0 4.32)"/><path class="cls-12" d="M715.59,423.37a1.19,1.19,0,0,1,.18-.25s-.06.11-.09.14Z" transform="translate(0 4.32)"/><path class="cls-12" d="M771.42,297c.16,8.14,2.61,16.88,4.26,25.17s5.38,20.48,5.38,20.48l-.5,70.51-7.2-36.29s.74-4.53-1.62-14.65-3.58-32.31-3.58-32.31-5.94,24.72-5.75,26.42l2,17.83L746.77,358s.62-19.1-2.4-21.73-7.65,15.68-11,32.36-8.07,34.26-9.62,40.37c-1.25,4.85-6.65,12.29-8,14.1,1.33-3.1-4-33.54-4-33.54l-7.89-33.23-2.87-26-10.91-19.9a6,6,0,0,1,1.72-2.42,6.92,6.92,0,0,1,4.08-.82q10.47.14,20.92.25a26.78,26.78,0,0,0,17.05-4.29c9.1-4.81,18.5-9.87,24.75-18.07a13.22,13.22,0,0,0,2.34-4.19,25.14,25.14,0,0,0,.54-5.43,22.27,22.27,0,0,1,4.07-11.26,37,37,0,0,0,3.46-4.92c2.11-4.25.2-9.72,1.29-14.34l3.34,30.2S771.26,288.82,771.42,297Z" transform="translate(0 4.32)"/><path class="cls-12" d="M992.49,425.09c.13,28-5.54,43.8-5.54,43.8l0,1.09-1.8,49.28-4.25,82.3-18,52.25-14,15.56a3.16,3.16,0,0,0,0-2.38c-.7-1.75-2.77-2.49-4.62-2.83-3.4-.63-7.24-.82-10.67-1.59-3.59-.79-6.73-2.2-8.5-5.34,0,0,10-80.27,19.42-102.08S956.9,505.6,956.9,505.6l7-84.58,17-101.25S992.36,397.1,992.49,425.09Z" transform="translate(0 4.32)"/><path class="cls-12" d="M927.88,283.49l-9.24,117.56s3.19,69.11.25,96.13-8.66,63.25-8.66,63.25l-21,75.37c-2-1.79-3.56-4.12-5.64-5.86-2.53-2.14-5.73-3.27-8.89-4.27a154.18,154.18,0,0,0-23.07-5.38c-4.34-.67-9.73-2-10.62-6.33-.44-2.09.24-4.71-1.44-6-1.17-.91-2.84-.59-4.29-.33A33.8,33.8,0,0,1,808.68,601c14.22-1.57,51.84-28.14,51.84-28.14l29.35-43.07,10.4-66.85Z" transform="translate(0 4.32)"/><path class="cls-13" d="M1147.16,750.2l-10.52,6a11.33,11.33,0,0,1-8.59,1.88c-32.75-2.82-64.71-11.3-96.37-20.2-4-1.11-8-2.3-11.21-4.93-6.19-5.19-2-11-4.28-17.38-1.18-3.34-3.44-6.16-5.65-8.91l-17.63,3c-1.2.21-2.61.33-3.42-.56s-.59-2-.72-3c-.5-4.43-5.55-6.88-10-7.11s-9,.87-13.33-.18S957.11,693,959,689c-4.29.18-8.8.25-12.53-1.84s-6.11-7.19-3.85-10.81a13.72,13.72,0,0,1,2.41-2.7h0l3.84-4.29a3.16,3.16,0,0,0,0-2.38c-.7-1.75-2.77-2.49-4.62-2.83-3.4-.63-7.24-.82-10.67-1.59,5-13.78,10.66-29.35,16.43-44.25,15-38.74,6.87-72,6.87-72l17.47-61.84L986.91,470l15.75-18.37,15.61-115.22s-13.31-80.1-15.74-88.73-18.38-32.08-27.32-59.27,1.32-41.67,1.16-43.14,9.3-50,9.3-50L991,143.63l31-59.3s8.68-55.85,12.87-78.93a89.4,89.4,0,0,1,2-9.72L1049.17,3l14.86,8.9,34.4,305.5,3,26.43h0Z" transform="translate(0 4.32)"/><path class="cls-14" d="M769.06,456.66s-1.53,46.49-3.26,50.95c-1.25,3.22-33.74,44.28-51.8,66.95-1.08-.1-2.16-.22-3.24-.34-1.36-.16-3-.57-3.75-1.54a2.13,2.13,0,0,1-.45-1.09,2.43,2.43,0,0,1,.77-1.94v0c.65-.71,1.58-1.31,2.33-2a5,5,0,0,0,.63-.69,3.87,3.87,0,0,0,.72-1.8,5.35,5.35,0,0,0-.64-3.15l15.91-40.51,20.74-27,3.31-104.19L753.85,422Z" transform="translate(0 4.32)"/><path class="cls-14" d="M643.43,359.79l.07,38.82s6.74-32.88,8.53-34.56,12.16-15.18,12.16-15.18-4.51,17.3-5.81,18.92-4.13,20.74-4.13,20.74l-11.85,27-1.64,20.94s2.93,4.13,1.19,10.76-4.9,31.69-4.69,33.64-3.91,22.68-3.91,22.68l-6.52,8.13-12.21,10.25-6.57,12.11-15.69,10c5.69-4.82,7.59-12.17,10.36-19.16,2.53-.22,4.4-2.46,5.58-4.71s2-4.78,3.89-6.5c2.56-2.36,6.48-2.72,9.06-5,1.79-1.62,2.68-4,3.53-6.25,1.22-3.29,2.44-6.6,3.67-9.89a23.6,23.6,0,0,0,1.89-11.74l-.69-23.52a33.91,33.91,0,0,1,.31-7.4c.81-4.44,3.29-8.42,4-12.86,2.17-13-10.72-25.46-7.06-38.07a16.7,16.7,0,0,0,1-4.09,11.19,11.19,0,0,0-.86-4c-1.62-4.63-3.66-7.48-5.14-12.15-.86-2.76-1.73-5.59-1.53-8.47a20.4,20.4,0,0,1,2-6.78,75.45,75.45,0,0,1,35.45-37.5,14.51,14.51,0,0,0,9.85-3.21,13.15,13.15,0,0,0,2.13-2.09c2-2.39,3.38-5.62,6.33-6.54L674.14,327l-14.39,8.52-10.88,9Z" transform="translate(0 4.32)"/><path class="cls-14" d="M806.1,224.88l-15,9.09,5.1,46.15-10.43,26.37,9.67,33.78.71,40-2.79,41.84-12.85-9,.5-70.51L771.42,297,773,270.08,770.27,245a29,29,0,0,1,15.92-19.33,21.37,21.37,0,0,1,11.57-2C800.56,224,803.29,225.09,806.1,224.88Z" transform="translate(0 4.32)"/><path class="cls-12" d="M825.43,543.86l15.21-15,1.94,25.86s-20.37,17-20.48,24.39S808.68,601,808.68,601a2.54,2.54,0,0,1-1-1.31c-.21-.92.58-1.74,1.16-2.48a7.26,7.26,0,0,0-.59-9.28c-2.42-2.39-8.44-2.54-11.69-1.57-3,.89-6.1,1.8-9.17,1.4l-.18,0c-3.15-.47-6.28-2.74-6.64-5.88,0-.4,0-.8-.1-1.18a2.59,2.59,0,0,0-.18-.69c-.63-1.49-2.61-1.73-4.22-1.75,0,0,7.32-12.43,9.22-15.36S792,549.79,792,549.79l14.29-25,7-25.56,17.57-59.05L827,484.36s.15,28.13-.71,33.81S825.43,543.86,825.43,543.86Z" transform="translate(0 4.32)"/><path class="cls-14" d="M937.08,49.93,926.31,77.12l.43,21.71-.45,22.79s-1.2,33.76-3.27,41.89-1.53,13-5,31.21c-3.37,17.88-17.35,100.19-17.79,102.76l1-53.45,1.44-49.59-15.29,50.13.09-62.3,3.7-20.18s7.51-21.59,8.59-11.82l3.45,31.25,9.35-36.14-27-7.39-7,26.49,2.11-39.39a33,33,0,0,1,5.41-10c5.41-6.56,13.8-9.94,19.86-15.92,4.55-4.48,7.5-10.11,10.15-16,0,0,0,0,0,0,2-4.55,3.91-9.25,6.2-13.64A77.63,77.63,0,0,1,937.08,49.93Z" transform="translate(0 4.32)"/><path class="cls-15" d="M1050.3,485.13,1021,602.32l-8.07,34.26,3.23,29.23c.9,8.13,4.32,67.11,4.32,67.11-6.19-5.19-2-11-4.28-17.38-1.18-3.34-3.44-6.16-5.65-8.91l-17.63,3c-1.2.21-2.61.33-3.42-.56s-.59-2-.72-3c-.5-4.43-5.55-6.88-10-7.11s-9,.87-13.33-.18S957.11,693,959,689c-4.29.18-8.8.25-12.53-1.84l37.72-21.71,11-41.39,18.95-49.93Z" transform="translate(0 4.32)"/><path class="cls-15" d="M724.68,505.7c-.16.91-5.88,30-9.19,34.75-1.56,2.25-2.48,13.09-6.42,21-1.2-.43-29.63-.47-40.54,0L673,526.86,649.35,556.4a16.39,16.39,0,0,1-1.29,1.13c-5.8.6-11.59.69-17.1-1-2.9-.91-5.67-2.31-8.69-2.66a16.31,16.31,0,0,0-3.35,0,52,52,0,0,0-6.63,1.25A137.17,137.17,0,0,1,585.85,558h0l38.5-10.93,26-17.71L681,465.25s-3.87,25.3-3.47,29-1.13,23.27-1.13,23.27l6.59-.72,9,20.66s17.3-4.48,17.1-6.3S724.2,506.43,724.68,505.7Z" transform="translate(0 4.32)"/><polygon class="cls-12" points="780.05 441.71 786.66 472.62 790 502.78 776.47 527.99 802.1 501.44 799.29 476.05 818.62 448.63 826.98 409.69 800.77 460.19 780.05 441.71"/><path class="cls-15" d="M957,148.88l4.76,43,10.72,40.34S962.88,257,961.31,269s-14,78.67-14,78.67L941,299l3.28-41.89,13.4-21.26-5.08-45.91.22-88Z" transform="translate(0 4.32)"/><path class="cls-15" d="M885.06,325.42l10,28.06L888,387.39s-1.21,24.86-3.54,35-8.9,51.41-8.9,51.41l2.27-48.7L883,392.4l-1.13-10.26s-7.46-41.69-8.16-43.59-11.44-31.86-11.44-31.86l21.63,48Z" transform="translate(0 4.32)"/><path class="cls-15" d="M1054,158.74l-1.86,81.46s1.53,31.77,3.95,53.6,2,35.72,3.37,66.22S1064,445.7,1064,445.7s-23.89-126.59-19.35-130.28,1.72-29.1,1.72-29.1l-4.21-38.09s-14.75-26.06-16.37-31.81-29.28-59-29.28-59l19.72,19.57,14.55,31Z" transform="translate(0 4.32)"/><path class="cls-15" d="M980.45,480.14l-3.53,32.13L969.73,559s5.91-10.62,8.21-13.67l13.91-18.48,10.58-23.81L1032,478.17l-21.76,6.69L985.4,511.33Z" transform="translate(0 4.32)"/><path class="cls-12" d="M771.37,536c.18,1.21-7,28.26-7,28.26s-3.92,8.57-5.85,13.55q-18.82-.67-37.59-2.53c7.07-4.58,17.38-11.89,17.38-11.89l12.58-16,6.22-10.82-2.28,10.64-6.6,14.08,5.39-.35,13.63-17.58S771.19,534.78,771.37,536Z" transform="translate(0 4.32)"/></g></g></g></g></g></svg>