<svg xmlns="http://www.w3.org/2000/svg" xmlns:xlink="http://www.w3.org/1999/xlink" viewBox="0 0 585.38 762.51"><defs><style>.cls-1{fill:none;}.cls-2{clip-path:url(#clip-path);}.cls-3{fill:#9e5124;}.cls-4{fill:#7d411c;}.cls-5{fill:#783f1c;}.cls-6{fill:#c5642b;}.cls-7{fill:#6e3a19;}</style><clipPath id="clip-path" transform="translate(56.38 4.32)"><polygon id="hill" class="cls-1" points="418.9 560.18 0 560.18 27.41 527.61 58.3 523.54 94.2 420.96 139.76 337.11 172.58 276.05 237.83 259.77 262.93 192.2 298.83 112.42 323.93 61.13 345.16 51.36 360.99 12.29 395.57 0 411.53 13.51 426.27 13.51 418.9 48.92 418.9 560.18"/></clipPath></defs><g id="Layer_2" data-name="Layer 2"><g id="landscape"><g id="page_02"><g id="Hill-2" data-name="Hill"><g class="cls-2"><path class="cls-3" d="M529,750.2l-10.53,6a11.31,11.31,0,0,1-8.58,1.88c-32.75-2.82-64.72-11.3-96.37-20.2-3.95-1.11-8-2.3-11.21-4.93-6.2-5.19-2-11-4.28-17.38-1.19-3.34-3.44-6.16-5.66-8.91l-17.63,3c-1.19.21-2.6.33-3.41-.56s-.59-2-.73-3c-.5-4.43-5.55-6.88-10-7.11s-9,.87-13.32-.18-8.35-5.72-6.42-9.73c-4.28.18-8.8.25-12.53-1.84s-6.1-7.19-3.85-10.81a14.11,14.11,0,0,1,2.42-2.7h0c1.57-1.42,3.24-2.75,3.85-4.29a3.21,3.21,0,0,0,0-2.38c-.7-1.75-2.77-2.49-4.61-2.83-3.41-.63-7.24-.82-10.68-1.59-3.59-.79-6.73-2.2-8.5-5.34-1.06-1.87-1.38-4.06-2.26-6-2.63-5.81-9.52-8.24-15.78-9.38-3.11-.56-6.33-1-9.39-1.84a21.56,21.56,0,0,1-7.64-3.55c-.28-.2-.55-.42-.83-.66-2-1.79-3.56-4.12-5.63-5.86-2.54-2.14-5.73-3.27-8.9-4.27a154.34,154.34,0,0,0-23.06-5.38c-4.35-.67-9.74-2-10.63-6.33-.44-2.09.24-4.71-1.43-6-1.17-.91-2.84-.59-4.3-.33A33.79,33.79,0,0,1,190.52,601a2.56,2.56,0,0,1-1-1.31c-.2-.92.58-1.74,1.17-2.48a7.28,7.28,0,0,0-.6-9.28c-2.42-2.39-8.44-2.54-11.68-1.57-3,.89-6.11,1.8-9.18,1.4l-.18,0c-3.15-.47-6.28-2.74-6.64-5.88,0-.4,0-.8-.1-1.18a2.26,2.26,0,0,0-.18-.69c-.63-1.49-2.61-1.73-4.21-1.75-5.84-.06-11.67-.19-17.49-.43q-18.84-.67-37.6-2.53c-2.32-.22-4.63-.47-7-.72-1.08-.1-2.16-.22-3.24-.34-1.35-.16-3-.57-3.75-1.54a2,2,0,0,1-.44-1.09,2.46,2.46,0,0,1,.76-1.94v0c.65-.71,1.58-1.31,2.33-2a5.13,5.13,0,0,0,.64-.69,3.87,3.87,0,0,0,.72-1.8,5.36,5.36,0,0,0-.65-3.15,6,6,0,0,0-1.36-1.72c-1.89-1.63-4.44-2.19-6.89-2.63a147.49,147.49,0,0,0-43.59-1.36c-9.2,1.07-18.73,3-27.58.24-2.9-.91-5.67-2.31-8.69-2.66a16.31,16.31,0,0,0-3.35,0,51.47,51.47,0,0,0-6.62,1.25c-16.5,3.7-33.62,3.16-50.51,2.61,7.25-5.21,16.88-6.17,24.83-10l0,0a27.2,27.2,0,0,0,5.38-3.35l.33-.29c5.69-4.82,7.59-12.17,10.37-19.16,2.52-.22,4.4-2.46,5.57-4.71s2-4.78,3.89-6.5c2.56-2.36,6.48-2.72,9.06-5,1.79-1.62,2.69-4,3.53-6.25,1.23-3.29,2.45-6.6,3.67-9.89A32.16,32.16,0,0,0,11.93,487a32,32,0,0,0,.24-6.27q-.35-11.75-.69-23.52a33.91,33.91,0,0,1,.31-7.4c.81-4.44,3.3-8.42,4.05-12.86C18,424,5.12,411.51,8.78,398.9a16.7,16.7,0,0,0,1-4.09,10.78,10.78,0,0,0-.86-4c-1.62-4.63-3.66-7.48-5.14-12.15-.85-2.76-1.73-5.59-1.53-8.47a20.64,20.64,0,0,1,2-6.78,75.49,75.49,0,0,1,35.45-37.5,14.5,14.5,0,0,0,9.85-3.21,13.15,13.15,0,0,0,2.13-2.09c2-2.39,3.38-5.62,6.33-6.54,3.85-1.2,8.7,2.17,11.78-.3l.19-.15a9.13,9.13,0,0,0,1.89-3.1,6.15,6.15,0,0,1,1.72-2.42,6.92,6.92,0,0,1,4.08-.82q10.47.14,20.93.25a36.45,36.45,0,0,0,8-.49,36.49,36.49,0,0,0,9.09-3.8c9.11-4.81,18.5-9.87,24.75-18.07a13,13,0,0,0,2.34-4.19,25.79,25.79,0,0,0,.55-5.43,22.17,22.17,0,0,1,4.06-11.26,36.06,36.06,0,0,0,3.46-4.92c2.11-4.25.2-9.72,1.29-14.34A28.94,28.94,0,0,1,168,225.68a21.36,21.36,0,0,1,11.57-2c2.8.37,5.52,1.42,8.33,1.21s5.23-1.58,7.61-2.94l24.93-14.12a47.75,47.75,0,0,0,7.7-5,18.13,18.13,0,0,0,2.93-3.13c3.08-4.2,4-9.64,6.82-14s9.48-7.21,13.13-3.5c.07-2,.19-4,.37-6h0s0,0,0,0,0,0,0,0c1.16-13.7,4.58-27.19,8-40.55h0c.06-.23.12-.43.18-.66a101.82,101.82,0,0,1,2.89-9.8,33,33,0,0,1,5.41-10c5.42-6.56,13.81-9.94,19.86-15.92,4.55-4.48,7.5-10.11,10.15-16,0,0,0,0,0,0,2.05-4.55,3.92-9.25,6.2-13.64a77.63,77.63,0,0,1,14.78-19.67,93.5,93.5,0,0,1,21.47-15.57c7.61-4,16.16-7.51,22.5-13a27.74,27.74,0,0,0,6.48-8l47.38-8L431,3,444.61.73l1.25,11.18,34.4,305.5,3,26.43h0Z" transform="translate(56.38 4.32)"/><path class="cls-4" d="M251.05,182.16l-2,76s-11.45,3.73-12.33,36,1.69,82.37,1.69,82.37l-5.06,115.14s-4.79-56.75-5.74-65.28-9-68.42-9-68.42l-6.75-61.06,17.32-78-1-16.09a18.13,18.13,0,0,0,2.93-3.13c3.08-4.2,4-9.64,6.82-14S247.4,178.45,251.05,182.16Z" transform="translate(56.38 4.32)"/><path class="cls-4" d="M89.16,569.65c-.48,1.24-.76,1.94-.76,1.94A2.46,2.46,0,0,1,89.16,569.65Z" transform="translate(56.38 4.32)"/><path class="cls-4" d="M132.32,391.55l-2.85,108.31s-18.38,21.58-20.64,28c-1.58,4.5-10.53,28.25-15.74,42.06a5.93,5.93,0,0,0-1.37-1.79,9.11,9.11,0,0,0-3.17-1.81c-1.2-.45-2.49-1.24-3.73-1-11.48,2.61-21.73-2.91-32.64-2.47-3.66.14-7.34.43-11,.86-3.46.41-7,.94-10.48,1.28-5.79.6-11.59.67-17.11-1.14-2.91-1-5.68-2.43-8.7-2.81a16.41,16.41,0,0,0-3.36,0,48.34,48.34,0,0,0-6.62,1.28,131.89,131.89,0,0,1-26.45,2.94c-8,.16-16.08-.15-24.07-.46l49.28-14.16L15,528.39l16.72-18.73s16.43-39.23,16.8-44.73,4.36-32.2,4.36-32.2l14.23-67.91,5.17,46.75s-2.33,32.6-2,35.42l3.35,30.27,19.08,47.26,6.25-41.84,19.37-57.19Z" transform="translate(56.38 4.32)"/><path class="cls-4" d="M97.42,423.37a1.19,1.19,0,0,1,.18-.25.67.67,0,0,1-.09.14Z" transform="translate(56.38 4.32)"/><path class="cls-4" d="M153.25,297c.16,8.14,2.61,16.88,4.27,25.17s5.38,20.48,5.38,20.48l-.51,70.51-7.2-36.29s.74-4.53-1.62-14.65S150,329.87,150,329.87s-5.94,24.72-5.75,26.42l2,17.83L128.61,358s.61-19.1-2.41-21.73-7.65,15.68-11,32.36-8.07,34.26-9.62,40.37c-1.24,4.85-6.65,12.29-8,14.1,1.33-3.1-4-33.54-4-33.54l-7.89-33.23-2.87-26L71.88,310.5a6.15,6.15,0,0,1,1.72-2.42,6.92,6.92,0,0,1,4.08-.82q10.47.14,20.93.25a36.45,36.45,0,0,0,8-.49,36.49,36.49,0,0,0,9.09-3.8c9.11-4.81,18.5-9.87,24.75-18.07a13,13,0,0,0,2.34-4.19,25.79,25.79,0,0,0,.55-5.43,22.17,22.17,0,0,1,4.06-11.26,36.06,36.06,0,0,0,3.46-4.92c2.11-4.25.2-9.72,1.29-14.34l3.34,30.2S153.09,288.82,153.25,297Z" transform="translate(56.38 4.32)"/><path class="cls-4" d="M374.32,425.09c.13,28-5.53,43.8-5.53,43.8l-.05,1.09-1.8,49.28-4.24,82.3-17.95,52.25-14,15.56a3.21,3.21,0,0,0,0-2.38c-.7-1.75-2.77-2.49-4.61-2.83-3.41-.63-7.24-.82-10.68-1.59-3.59-.79-6.73-2.2-8.5-5.34,0,0,10-80.27,19.43-102.08s12.31-49.55,12.31-49.55l7-84.58,17-101.25S374.19,397.1,374.32,425.09Z" transform="translate(56.38 4.32)"/><path class="cls-4" d="M309.72,283.49l-9.25,117.56s3.2,69.11.25,96.13-8.66,63.25-8.66,63.25l-21,75.37c-2-1.79-3.56-4.12-5.63-5.86-2.54-2.14-5.73-3.27-8.9-4.27a154.34,154.34,0,0,0-23.06-5.38c-4.35-.67-9.74-2-10.63-6.33-.44-2.09.24-4.71-1.43-6-1.17-.91-2.84-.59-4.3-.33A33.79,33.79,0,0,1,190.52,601c14.21-1.57,51.83-28.14,51.83-28.14l29.35-43.07,10.4-66.85Z" transform="translate(56.38 4.32)"/><path class="cls-5" d="M529,750.2l-10.53,6a11.31,11.31,0,0,1-8.58,1.88c-32.75-2.82-64.72-11.3-96.37-20.2-3.95-1.11-8-2.3-11.21-4.93-6.2-5.19-2-11-4.28-17.38-1.19-3.34-3.44-6.16-5.66-8.91l-17.63,3c-1.19.21-2.6.33-3.41-.56s-.59-2-.73-3c-.5-4.43-5.55-6.88-10-7.11s-9,.87-13.32-.18-8.35-5.72-6.42-9.73c-4.28.18-8.8.25-12.53-1.84s-6.1-7.19-3.85-10.81a14.11,14.11,0,0,1,2.42-2.7h0l3.85-4.29a3.21,3.21,0,0,0,0-2.38c-.7-1.75-2.77-2.49-4.61-2.83-3.41-.63-7.24-.82-10.68-1.59,5-13.78,10.66-29.35,16.43-44.25,15-38.74,6.87-72,6.87-72l17.47-61.84L368.74,470l15.75-18.37,15.62-115.22s-13.31-80.1-15.75-88.73S366,215.58,357,188.39s1.32-41.67,1.16-43.14,9.3-50,9.3-50l5.35,48.35,31-59.3s8.68-55.85,12.88-78.93a84.24,84.24,0,0,1,2-9.72L431,3l14.85,8.9,34.4,305.5,3,26.43h0Z" transform="translate(56.38 4.32)"/><path class="cls-6" d="M150.89,456.66s-1.53,46.49-3.26,50.95c-1.25,3.22-33.74,44.28-51.8,66.95-1.08-.1-2.16-.22-3.24-.34-1.35-.16-3-.57-3.75-1.54a2,2,0,0,1-.44-1.09,2.46,2.46,0,0,1,.76-1.94v0c.65-.71,1.58-1.31,2.33-2a5.13,5.13,0,0,0,.64-.69,3.87,3.87,0,0,0,.72-1.8,5.36,5.36,0,0,0-.65-3.15l15.91-40.51,20.75-27,3.3-104.19L135.68,422Z" transform="translate(56.38 4.32)"/><path class="cls-6" d="M25.26,359.79l.07,38.82s6.75-32.88,8.53-34.56S46,348.87,46,348.87s-4.51,17.3-5.81,18.92-4.13,20.74-4.13,20.74l-11.84,27-1.65,20.94s2.94,4.13,1.19,10.76-4.9,31.69-4.68,33.64-3.92,22.68-3.92,22.68l-6.51,8.13L-3.55,521.94l-6.56,12.11-15.7,10c5.69-4.82,7.59-12.17,10.37-19.16,2.52-.22,4.4-2.46,5.57-4.71s2-4.78,3.89-6.5c2.56-2.36,6.48-2.72,9.06-5,1.79-1.62,2.69-4,3.53-6.25,1.23-3.29,2.45-6.6,3.67-9.89A32.16,32.16,0,0,0,11.93,487a32,32,0,0,0,.24-6.27q-.35-11.75-.69-23.52a33.91,33.91,0,0,1,.31-7.4c.81-4.44,3.3-8.42,4.05-12.86C18,424,5.12,411.51,8.78,398.9a16.7,16.7,0,0,0,1-4.09,10.78,10.78,0,0,0-.86-4c-1.62-4.63-3.66-7.48-5.14-12.15-.85-2.76-1.73-5.59-1.53-8.47a20.64,20.64,0,0,1,2-6.78,75.49,75.49,0,0,1,35.45-37.5,14.5,14.5,0,0,0,9.85-3.21,13.15,13.15,0,0,0,2.13-2.09c2-2.39,3.38-5.62,6.33-6.54L56,327l-14.39,8.52-10.88,9Z" transform="translate(56.38 4.32)"/><path class="cls-6" d="M187.93,224.88,173,234l5.1,46.15-10.43,26.37,9.67,33.78.72,40-2.79,41.84-12.86-9,.51-70.51L153.25,297l1.62-26.88L152.1,245A28.94,28.94,0,0,1,168,225.68a21.36,21.36,0,0,1,11.57-2C182.4,224,185.12,225.09,187.93,224.88Z" transform="translate(56.38 4.32)"/><path class="cls-4" d="M207.26,543.86l15.21-15,1.94,25.86s-20.37,17-20.48,24.39S190.52,601,190.52,601a2.56,2.56,0,0,1-1-1.31c-.2-.92.58-1.74,1.17-2.48a7.28,7.28,0,0,0-.6-9.28c-2.42-2.39-8.44-2.54-11.68-1.57-3,.89-6.11,1.8-9.18,1.4l-.18,0c-3.15-.47-6.28-2.74-6.64-5.88,0-.4,0-.8-.1-1.18a2.26,2.26,0,0,0-.18-.69c-.63-1.49-2.61-1.73-4.21-1.75,0,0,7.31-12.43,9.21-15.36s6.71-13.09,6.71-13.09l14.29-25,7-25.56,17.57-59.05-3.84,44.18s.15,28.13-.71,33.81S207.26,543.86,207.26,543.86Z" transform="translate(56.38 4.32)"/><path class="cls-6" d="M318.91,49.93,308.14,77.12l.43,21.71-.45,22.79s-1.2,33.76-3.27,41.89-1.52,13-5,31.21c-3.37,17.88-17.34,100.19-17.79,102.76l1-53.45,1.44-49.59-15.29,50.13.09-62.3,3.71-20.18s7.5-21.59,8.58-11.82l3.46,31.25,9.35-36.14-27-7.39-7,26.49,2.11-39.39a33,33,0,0,1,5.41-10c5.42-6.56,13.81-9.94,19.86-15.92,4.55-4.48,7.5-10.11,10.15-16,0,0,0,0,0,0,2.05-4.55,3.92-9.25,6.2-13.64A77.63,77.63,0,0,1,318.91,49.93Z" transform="translate(56.38 4.32)"/><path class="cls-7" d="M432.13,485.13l-29.3,117.19-8.08,34.26L398,665.81c.9,8.13,4.33,67.11,4.33,67.11-6.2-5.19-2-11-4.28-17.38-1.19-3.34-3.44-6.16-5.66-8.91l-17.63,3c-1.19.21-2.6.33-3.41-.56s-.59-2-.73-3c-.5-4.43-5.55-6.88-10-7.11s-9,.87-13.32-.18-8.35-5.72-6.42-9.73c-4.28.18-8.8.25-12.53-1.84l37.72-21.71,11-41.39L396,574.15Z" transform="translate(56.38 4.32)"/><path class="cls-7" d="M106.51,505.7c-.16.91-5.87,30-9.19,34.75-1.56,2.25-2.48,13.09-6.41,21-1.21-.43-29.63-.47-40.54,0l4.47-34.55L31.19,556.4a15.49,15.49,0,0,1-1.3,1.13c-5.79.6-11.58.69-17.1-1-2.9-.91-5.67-2.31-8.69-2.66a16.31,16.31,0,0,0-3.35,0,51.47,51.47,0,0,0-6.62,1.25A137.36,137.36,0,0,1-32.32,558h0l38.5-10.93,26-17.71,30.73-64.12s-3.88,25.3-3.47,29-1.14,23.27-1.14,23.27l6.6-.72,9,20.66s17.3-4.48,17.1-6.3S106,506.43,106.51,505.7Z" transform="translate(56.38 4.32)"/><polygon class="cls-4" points="218.26 441.71 224.88 472.62 228.22 502.78 214.69 527.99 240.32 501.44 237.51 476.05 256.83 448.63 265.2 409.69 238.99 460.19 218.26 441.71"/><path class="cls-7" d="M338.82,148.88l4.76,43L354.3,232.2S344.71,257,343.15,269s-14,78.67-14,78.67L322.8,299l3.27-41.89,13.4-21.26-5.07-45.91.21-88Z" transform="translate(56.38 4.32)"/><path class="cls-7" d="M266.89,325.42l10,28.06-7.13,33.91s-1.2,24.86-3.54,35-8.9,51.41-8.9,51.41l2.28-48.7,5.15-32.7-1.13-10.26s-7.45-41.69-8.16-43.59-11.43-31.86-11.43-31.86l21.62,48Z" transform="translate(56.38 4.32)"/><path class="cls-7" d="M435.82,158.74,434,240.2s1.54,31.77,4,53.6,2,35.72,3.37,66.22,4.54,85.68,4.54,85.68-23.9-126.59-19.36-130.28,1.72-29.1,1.72-29.1L424,248.23s-14.75-26.06-16.37-31.81-29.28-59-29.28-59L398,176.94l14.56,31Z" transform="translate(56.38 4.32)"/><path class="cls-7" d="M362.28,480.14l-3.53,32.13L351.57,559s5.91-10.62,8.21-13.67,13.9-18.48,13.9-18.48l10.59-23.81,29.54-24.91-21.75,6.69-24.83,26.47Z" transform="translate(56.38 4.32)"/><path class="cls-4" d="M153.2,536c.18,1.21-7,28.26-7,28.26s-3.92,8.57-5.84,13.55q-18.84-.67-37.6-2.53c7.07-4.58,17.39-11.89,17.39-11.89l12.57-16L139,536.58l-2.28,10.64-6.6,14.08,5.39-.35,13.63-17.58S153,534.78,153.2,536Z" transform="translate(56.38 4.32)"/></g></g></g></g></g></svg>